# xmcd
#
# Track frame offsets:
#	150
#	13617
#	34762
#	50497
#	74020
#	88677
#	105502
#	122712
#	149635
#	168025
#	183710
#	202652
#
# Disc length: 2774 seconds
# Revision: 1
# Processed by: cddbd v1.5.2PL0 Copyright (c) Steve Scherf et al.
# Submitted via: dBpowerAMP V12.0
#
DISCID=a50ad40c
DTITLE=Charlie Musselwhite - Sanctuary
DYEAR=2004
DGENRE=Blues
TTITLE0=Homeless Child
TTITLE1=My Road Lies In Darkness
TTITLE2=Burn Down The Cornfield
TTITLE3=Train To Nowhere
TTITLE4=Shootin' For The Moon
TTITLE5=Shadow People
TTITLE6=Snake Song
TTITLE7=The Neighborhood
TTITLE8=Alicia
TTITLE9=Sanctuary
TTITLE10=I Had Trouble
TTITLE11=Route 19 (Attala County, Mississippi)
EXTD=
EXTT0=
EXTT1=
EXTT2=
EXTT3=
EXTT4=
EXTT5=
EXTT6=
EXTT7=
EXTT8=
EXTT9=
EXTT10=
EXTT11=
PLAYORDER=
